<svg width="231" height="23" viewBox="0 0 231 23" fill="none" xmlns="http://www.w3.org/2000/svg">
<path d="M4.248 22H8.256L8.28 7.96H12.072V4.84H0.48V7.96H4.248V22ZM12.7545 22H16.7385V14.896H21.5865V22H25.5705V4.84H21.5865V11.704H16.7385V4.84H12.7545V22ZM27.1873 22H37.4353V18.88H31.1713V14.608H35.8993V11.704H31.1713V7.96H37.0993V4.84H27.1873V22ZM48.1541 15.52H50.8421V16.192C50.7941 18.016 49.9781 19.168 47.9861 19.168C45.6581 19.168 44.7701 17.584 44.7701 15.16V11.752C44.7701 9.184 45.8981 7.744 47.8901 7.744C49.4261 7.744 50.3141 8.464 50.4821 10.264H54.4421C54.2021 6.136 51.3701 4.6 47.8661 4.6C43.6661 4.6 40.6421 7.288 40.6421 11.776V15.088C40.6421 19.504 43.2101 22.264 47.8901 22.264C52.3781 22.264 54.7301 19.84 54.7301 15.736V12.808H48.1541V15.52ZM55.7201 22H65.9681V18.88H59.7041V14.608H64.4321V11.704H59.7041V7.96H65.6321V4.84H55.7201V22ZM66.8717 22H70.4477V10.432L75.7277 22H79.6397V4.84H76.0877V15.232L71.4077 4.84H66.8717V22ZM81.2576 22H85.2416V15.256H86.4416L89.4656 22H93.6656L90.2096 14.536C91.7936 13.936 92.9216 12.76 92.9216 10.384V9.76C92.9216 6.448 90.8336 4.84 86.8736 4.84H81.2576V22ZM85.2416 12.592V7.888H86.7296C88.2416 7.888 89.0336 8.44 89.0336 9.88V10.456C89.0336 11.968 88.2656 12.592 86.7296 12.592H85.2416ZM94.2373 22H104.485V18.88H98.2213V14.608H102.949V11.704H98.2213V7.96H104.149V4.84H94.2373V22Z" fill="#FAC081"/>
<path d="M108.316 22H112.348V4.84H108.316V22ZM119.452 22.264C123.148 22.264 125.308 20.2 125.308 17.008C125.308 13.456 123.172 12.352 120.004 11.464C117.988 10.864 117.436 10.384 117.436 9.208C117.436 8.176 118.06 7.552 119.212 7.552C120.388 7.552 121.108 8.104 121.204 9.592H124.948C124.78 6.184 122.716 4.6 119.236 4.6C115.756 4.6 113.62 6.568 113.62 9.496C113.62 12.64 115.228 13.936 118.66 14.968C120.628 15.544 121.42 15.976 121.42 17.392C121.42 18.64 120.7 19.312 119.452 19.312C117.772 19.312 117.196 18.496 117.124 16.84H113.284C113.38 20.464 115.516 22.264 119.452 22.264ZM126.281 22H129.857V10.432L135.137 22H139.049V4.84H135.497V15.232L130.817 4.84H126.281V22ZM142.062 10.936L144.846 5.584L141.63 4.552L139.998 10.168L142.062 10.936ZM148.534 22H152.542L152.566 7.96H156.358V4.84H144.766V7.96H148.534V22ZM162.248 22H166.28L168.656 11.296L171.008 22H174.824L178.256 4.84H174.56L172.592 16.168L170.168 4.84H167.072L164.792 16.096L162.872 4.84H158.84L162.248 22ZM185.08 22.264C189.544 22.264 192.4 19.456 192.4 15.016V11.704C192.4 7.168 189.4 4.6 185.128 4.6C180.928 4.6 177.832 7.336 177.832 11.776V15.112C177.832 19.48 180.64 22.264 185.08 22.264ZM185.128 19.072C183.16 19.072 181.96 17.68 181.96 15.088V11.752C181.96 9.184 183.112 7.768 185.128 7.768C187.12 7.768 188.272 9.256 188.272 11.752V15.064C188.272 17.632 187.12 19.072 185.128 19.072ZM193.472 22H197.456V15.256H198.656L201.68 22H205.88L202.424 14.536C204.008 13.936 205.136 12.76 205.136 10.384V9.76C205.136 6.448 203.048 4.84 199.088 4.84H193.472V22ZM197.456 12.592V7.888H198.944C200.456 7.888 201.248 8.44 201.248 9.88V10.456C201.248 11.968 200.48 12.592 198.944 12.592H197.456ZM206.451 22H216.051V18.856H210.459V4.84H206.451V22ZM216.923 4.84V22H222.347C227.339 22 229.883 19.456 229.883 14.896V11.824C229.883 7.216 227.339 4.84 222.347 4.84H216.923ZM222.179 7.936C224.747 7.936 225.731 9.136 225.731 11.896V14.896C225.731 17.656 224.723 18.904 222.227 18.904H220.931V7.936H222.179Z" fill="#FC8F68"/>
</svg>
 