<svg width="124" height="42" viewBox="0 0 124 42" fill="none" xmlns="http://www.w3.org/2000/svg">
<path d="M4.248 18H8.256L8.28 3.96H12.072V0.839999H0.48V3.96H4.248V18ZM12.7545 18H16.7385V10.896H21.5865V18H25.5705V0.839999H21.5865V7.704H16.7385V0.839999H12.7545V18ZM27.1873 18H37.4353V14.88H31.1713V10.608H35.8993V7.704H31.1713V3.96H37.0993V0.839999H27.1873V18ZM48.1541 11.52H50.8421V12.192C50.7941 14.016 49.9781 15.168 47.9861 15.168C45.6581 15.168 44.7701 13.584 44.7701 11.16V7.752C44.7701 5.184 45.8981 3.744 47.8901 3.744C49.4261 3.744 50.3141 4.464 50.4821 6.264H54.4421C54.2021 2.136 51.3701 0.599999 47.8661 0.599999C43.6661 0.599999 40.6421 3.288 40.6421 7.776V11.088C40.6421 15.504 43.2101 18.264 47.8901 18.264C52.3781 18.264 54.7301 15.84 54.7301 11.736V8.808H48.1541V11.52ZM55.7201 18H65.9681V14.88H59.7041V10.608H64.4321V7.704H59.7041V3.96H65.6321V0.839999H55.7201V18ZM66.8717 18H70.4477V6.432L75.7277 18H79.6397V0.839999H76.0877V11.232L71.4077 0.839999H66.8717V18ZM81.2576 18H85.2416V11.256H86.4416L89.4656 18H93.6656L90.2096 10.536C91.7936 9.936 92.9216 8.76 92.9216 6.384V5.76C92.9216 2.448 90.8336 0.839999 86.8736 0.839999H81.2576V18ZM85.2416 8.592V3.888H86.7296C88.2416 3.888 89.0336 4.44 89.0336 5.88V6.456C89.0336 7.968 88.2656 8.592 86.7296 8.592H85.2416ZM94.2373 18H104.485V14.88H98.2213V10.608H102.949V7.704H98.2213V3.96H104.149V0.839999H94.2373V18Z" fill="#FAC081"/>
<path d="M1.488 41H5.52V23.84H1.488V41ZM12.6238 41.264C16.3198 41.264 18.4798 39.2 18.4798 36.008C18.4798 32.456 16.3438 31.352 13.1758 30.464C11.1598 29.864 10.6078 29.384 10.6078 28.208C10.6078 27.176 11.2318 26.552 12.3838 26.552C13.5598 26.552 14.2798 27.104 14.3758 28.592H18.1198C17.9518 25.184 15.8878 23.6 12.4078 23.6C8.92781 23.6 6.79181 25.568 6.79181 28.496C6.79181 31.64 8.39981 32.936 11.8318 33.968C13.7998 34.544 14.5918 34.976 14.5918 36.392C14.5918 37.64 13.8718 38.312 12.6238 38.312C10.9438 38.312 10.3678 37.496 10.2958 35.84H6.45581C6.55181 39.464 8.68781 41.264 12.6238 41.264ZM19.4529 41H23.0289V29.432L28.3089 41H32.2209V23.84H28.6689V34.232L23.9889 23.84H19.4529V41ZM35.2337 29.936L38.0177 24.584L34.8017 23.552L33.1697 29.168L35.2337 29.936ZM41.7058 41H45.7138L45.7378 26.96H49.5298V23.84H37.9378V26.96H41.7058V41ZM55.4196 41H59.4516L61.8276 30.296L64.1796 41H67.9956L71.4276 23.84H67.7316L65.7636 35.168L63.3396 23.84H60.2436L57.9636 35.096L56.0436 23.84H52.0116L55.4196 41ZM78.2516 41.264C82.7156 41.264 85.5716 38.456 85.5716 34.016V30.704C85.5716 26.168 82.5716 23.6 78.2996 23.6C74.0996 23.6 71.0036 26.336 71.0036 30.776V34.112C71.0036 38.48 73.8116 41.264 78.2516 41.264ZM78.2996 38.072C76.3316 38.072 75.1316 36.68 75.1316 34.088V30.752C75.1316 28.184 76.2836 26.768 78.2996 26.768C80.2916 26.768 81.4436 28.256 81.4436 30.752V34.064C81.4436 36.632 80.2916 38.072 78.2996 38.072ZM86.6436 41H90.6276V34.256H91.8276L94.8516 41H99.0516L95.5956 33.536C97.1796 32.936 98.3076 31.76 98.3076 29.384V28.76C98.3076 25.448 96.2196 23.84 92.2596 23.84H86.6436V41ZM90.6276 31.592V26.888H92.1156C93.6276 26.888 94.4196 27.44 94.4196 28.88V29.456C94.4196 30.968 93.6516 31.592 92.1156 31.592H90.6276ZM99.6232 41H109.223V37.856H103.631V23.84H99.6232V41ZM110.095 23.84V41H115.519C120.511 41 123.055 38.456 123.055 33.896V30.824C123.055 26.216 120.511 23.84 115.519 23.84H110.095ZM115.351 26.936C117.919 26.936 118.903 28.136 118.903 30.896V33.896C118.903 36.656 117.895 37.904 115.399 37.904H114.103V26.936H115.351Z" fill="#FC8F68"/>
</svg>
