<svg width="1440" height="19" viewBox="0 0 1440 19" fill="none" xmlns="http://www.w3.org/2000/svg">
<path d="M-146.704 18H-142.552L-146.896 0.839999H-152.296L-156.664 18H-152.968L-152.176 14.472H-147.496L-146.704 18ZM-149.848 4.176L-148.144 11.664H-151.528L-149.848 4.176ZM-142.019 18H-138.011V11.376H-133.355V8.376H-138.011V3.96H-132.227V0.839999H-142.019V18ZM-131.43 18H-127.446V11.256H-126.246L-123.222 18H-119.022L-122.478 10.536C-120.894 9.936 -119.766 8.76 -119.766 6.384V5.76C-119.766 2.448 -121.854 0.839999 -125.814 0.839999H-131.43V18ZM-127.446 8.592V3.888H-125.958C-124.446 3.888 -123.654 4.44 -123.654 5.88V6.456C-123.654 7.968 -124.422 8.592 -125.958 8.592H-127.446ZM-111.941 18.264C-107.477 18.264 -104.621 15.456 -104.621 11.016V7.704C-104.621 3.168 -107.621 0.599999 -111.893 0.599999C-116.093 0.599999 -119.189 3.336 -119.189 7.776V11.112C-119.189 15.48 -116.381 18.264 -111.941 18.264ZM-111.893 15.072C-113.861 15.072 -115.061 13.68 -115.061 11.088V7.752C-115.061 5.184 -113.909 3.768 -111.893 3.768C-109.901 3.768 -108.749 5.256 -108.749 7.752V11.064C-108.749 13.632 -109.901 15.072 -111.893 15.072ZM-103.549 18H-97.3326C-93.6366 18 -91.6686 16.488 -91.6686 13.344V12.984C-91.6686 10.632 -92.9406 9.456 -94.9806 9.048C-93.2286 8.568 -92.1966 7.416 -92.1966 5.544V5.088C-92.1966 2.328 -94.0446 0.839999 -97.5006 0.839999H-103.549V18ZM-99.6366 7.824V3.6H-98.1246C-96.6846 3.6 -95.9646 4.032 -95.9646 5.424V5.832C-95.9646 7.272 -96.5886 7.824 -98.1006 7.824H-99.6366ZM-99.6366 15.24V10.392H-98.0286C-96.3246 10.392 -95.6286 10.992 -95.6286 12.576V13.008C-95.6286 14.52 -96.3726 15.24 -97.9086 15.24H-99.6366ZM-90.7564 18H-80.5084V14.88H-86.7724V10.608H-82.0444V7.704H-86.7724V3.96H-80.8444V0.839999H-90.7564V18ZM-70.7009 18H-66.5489L-70.8929 0.839999H-76.2929L-80.6609 18H-76.9649L-76.1729 14.472H-71.4929L-70.7009 18ZM-73.8449 4.176L-72.1409 11.664H-75.5249L-73.8449 4.176ZM-64.4723 18H-60.4643L-60.4403 3.96H-56.6483V0.839999H-68.2403V3.96H-64.4723V18ZM64.0061 18H67.5341V6.552L71.1341 18H72.3821L76.0061 6.552V18H79.9661V0.839999H74.8541L71.9981 10.44L69.1181 0.839999H64.0061V18ZM81.5561 18H91.8041V14.88H85.5401V10.608H90.2681V7.704H85.5401V3.96H91.4681V0.839999H81.5561V18ZM92.7076 18H96.6916V11.256H97.8916L100.916 18H105.116L101.66 10.536C103.244 9.936 104.372 8.76 104.372 6.384V5.76C104.372 2.448 102.284 0.839999 98.3236 0.839999H92.7076V18ZM96.6916 8.592V3.888H98.1796C99.6916 3.888 100.484 4.44 100.484 5.88V6.456C100.484 7.968 99.7156 8.592 98.1796 8.592H96.6916ZM105.687 18H115.935V14.88H109.671V10.608H114.399V7.704H109.671V3.96H115.599V0.839999H105.687V18ZM116.839 18H120.415V6.432L125.695 18H129.607V0.839999H126.055V11.232L121.375 0.839999H116.839V18ZM138.209 11.52H140.897V12.192C140.849 14.016 140.033 15.168 138.041 15.168C135.713 15.168 134.825 13.584 134.825 11.16V7.752C134.825 5.184 135.953 3.744 137.945 3.744C139.481 3.744 140.369 4.464 140.537 6.264H144.497C144.257 2.136 141.425 0.599999 137.921 0.599999C133.721 0.599999 130.697 3.288 130.697 7.776V11.088C130.697 15.504 133.265 18.264 137.945 18.264C142.433 18.264 144.785 15.84 144.785 11.736V8.808H138.209V11.52ZM154.391 0.839999V11.928C154.391 14.184 153.719 15.072 152.039 15.072C150.311 15.072 149.711 14.136 149.711 12V0.839999H145.703V12.144C145.703 16.224 148.007 18.264 152.015 18.264C156.047 18.264 158.423 16.272 158.423 12.096V0.839999H154.391ZM159.926 18H170.174V14.88H163.91V10.608H168.638V7.704H163.91V3.96H169.838V0.839999H159.926V18ZM296.412 18H300.42V10.344L304.86 18H309.348L303.852 8.784L309.084 0.839999H304.956L300.42 7.968V0.839999H296.412V18ZM309.863 18H313.895V0.839999H309.863V18ZM314.471 18H325.967V14.928H319.823L326.279 1.296V0.839999H315.287V3.864H320.951L314.471 17.544V18ZM333.189 18.264C337.653 18.264 340.509 15.456 340.509 11.016V7.704C340.509 3.168 337.509 0.599999 333.237 0.599999C329.037 0.599999 325.941 3.336 325.941 7.776V11.112C325.941 15.48 328.749 18.264 333.189 18.264ZM333.237 15.072C331.269 15.072 330.069 13.68 330.069 11.088V7.752C330.069 5.184 331.221 3.768 333.237 3.768C335.229 3.768 336.381 5.256 336.381 7.752V11.064C336.381 13.632 335.229 15.072 333.237 15.072ZM341.581 18H345.109V6.552L348.709 18H349.957L353.581 6.552V18H357.541V0.839999H352.429L349.573 10.44L346.693 0.839999H341.581V18ZM359.131 18H365.347C369.043 18 371.011 16.488 371.011 13.344V12.984C371.011 10.632 369.739 9.456 367.699 9.048C369.451 8.568 370.483 7.416 370.483 5.544V5.088C370.483 2.328 368.635 0.839999 365.179 0.839999H359.131V18ZM363.043 7.824V3.6H364.555C365.995 3.6 366.715 4.032 366.715 5.424V5.832C366.715 7.272 366.091 7.824 364.579 7.824H363.043ZM363.043 15.24V10.392H364.651C366.355 10.392 367.051 10.992 367.051 12.576V13.008C367.051 14.52 366.307 15.24 364.771 15.24H363.043ZM380.71 18H384.862L380.518 0.839999H375.118L370.75 18H374.446L375.238 14.472H379.918L380.71 18ZM377.566 4.176L379.27 11.664H375.886L377.566 4.176ZM510.791 18.264C514.487 18.264 516.647 16.2 516.647 13.008C516.647 9.456 514.511 8.352 511.343 7.464C509.327 6.864 508.775 6.384 508.775 5.208C508.775 4.176 509.399 3.552 510.551 3.552C511.727 3.552 512.447 4.104 512.543 5.592H516.287C516.119 2.184 514.055 0.599999 510.575 0.599999C507.095 0.599999 504.959 2.568 504.959 5.496C504.959 8.64 506.567 9.936 509.999 10.968C511.967 11.544 512.759 11.976 512.759 13.392C512.759 14.64 512.039 15.312 510.791 15.312C509.111 15.312 508.535 14.496 508.463 12.84H504.623C504.719 16.464 506.855 18.264 510.791 18.264ZM524.364 18.264C528.828 18.264 531.684 15.456 531.684 11.016V7.704C531.684 3.168 528.684 0.599999 524.412 0.599999C520.212 0.599999 517.116 3.336 517.116 7.776V11.112C517.116 15.48 519.924 18.264 524.364 18.264ZM524.412 15.072C522.444 15.072 521.244 13.68 521.244 11.088V7.752C521.244 5.184 522.396 3.768 524.412 3.768C526.404 3.768 527.556 5.256 527.556 7.752V11.064C527.556 13.632 526.404 15.072 524.412 15.072ZM541.372 0.839999V11.928C541.372 14.184 540.7 15.072 539.02 15.072C537.292 15.072 536.692 14.136 536.692 12V0.839999H532.684V12.144C532.684 16.224 534.988 18.264 538.996 18.264C543.028 18.264 545.404 16.272 545.404 12.096V0.839999H541.372ZM546.908 18H550.916V10.344L555.356 18H559.844L554.348 8.784L559.58 0.839999H555.452L550.916 7.968V0.839999H546.908V18ZM565.928 18.264C570.392 18.264 573.248 15.456 573.248 11.016V7.704C573.248 3.168 570.248 0.599999 565.976 0.599999C561.776 0.599999 558.68 3.336 558.68 7.776V11.112C558.68 15.48 561.488 18.264 565.928 18.264ZM565.976 15.072C564.008 15.072 562.808 13.68 562.808 11.088V7.752C562.808 5.184 563.96 3.768 565.976 3.768C567.968 3.768 569.12 5.256 569.12 7.752V11.064C569.12 13.632 567.968 15.072 565.976 15.072ZM582.936 0.839999V11.928C582.936 14.184 582.264 15.072 580.584 15.072C578.856 15.072 578.256 14.136 578.256 12V0.839999H574.248V12.144C574.248 16.224 576.552 18.264 580.56 18.264C584.592 18.264 586.968 16.272 586.968 12.096V0.839999H582.936ZM593.779 18.264C597.475 18.264 599.635 16.2 599.635 13.008C599.635 9.456 597.499 8.352 594.331 7.464C592.315 6.864 591.763 6.384 591.763 5.208C591.763 4.176 592.387 3.552 593.539 3.552C594.715 3.552 595.435 4.104 595.531 5.592H599.275C599.107 2.184 597.043 0.599999 593.563 0.599999C590.083 0.599999 587.947 2.568 587.947 5.496C587.947 8.64 589.555 9.936 592.987 10.968C594.955 11.544 595.747 11.976 595.747 13.392C595.747 14.64 595.027 15.312 593.779 15.312C592.099 15.312 591.523 14.496 591.451 12.84H587.611C587.707 16.464 589.843 18.264 593.779 18.264ZM727.694 18.192C731.006 18.192 732.854 16.416 732.854 12.864V0.839999H728.846V12.768C728.846 14.376 728.078 14.952 726.854 14.952C726.086 14.952 725.606 14.832 725.15 14.664V17.712C725.702 17.976 726.398 18.192 727.694 18.192ZM742.897 0.839999V11.928C742.897 14.184 742.225 15.072 740.545 15.072C738.817 15.072 738.217 14.136 738.217 12V0.839999H734.209V12.144C734.209 16.224 736.513 18.264 740.521 18.264C744.553 18.264 746.929 16.272 746.929 12.096V0.839999H742.897ZM749.458 18.192C752.77 18.192 754.618 16.416 754.618 12.864V0.839999H750.61V12.768C750.61 14.376 749.842 14.952 748.618 14.952C747.85 14.952 747.37 14.832 746.914 14.664V17.712C747.466 17.976 748.162 18.192 749.458 18.192ZM764.661 0.839999V11.928C764.661 14.184 763.989 15.072 762.309 15.072C760.581 15.072 759.981 14.136 759.981 12V0.839999H755.973V12.144C755.973 16.224 758.277 18.264 762.285 18.264C766.317 18.264 768.693 16.272 768.693 12.096V0.839999H764.661ZM897.153 11.52H899.841V12.192C899.793 14.016 898.977 15.168 896.985 15.168C894.657 15.168 893.769 13.584 893.769 11.16V7.752C893.769 5.184 894.897 3.744 896.889 3.744C898.425 3.744 899.313 4.464 899.481 6.264H903.441C903.201 2.136 900.369 0.599999 896.865 0.599999C892.665 0.599999 889.641 3.288 889.641 7.776V11.088C889.641 15.504 892.209 18.264 896.889 18.264C901.377 18.264 903.729 15.84 903.729 11.736V8.808H897.153V11.52ZM904.719 18H908.703V11.256H909.903L912.927 18H917.127L913.671 10.536C915.255 9.936 916.383 8.76 916.383 6.384V5.76C916.383 2.448 914.295 0.839999 910.335 0.839999H904.719V18ZM908.703 8.592V3.888H910.191C911.703 3.888 912.495 4.44 912.495 5.88V6.456C912.495 7.968 911.727 8.592 910.191 8.592H908.703ZM917.794 18H921.826V0.839999H917.794V18ZM930.25 18.264C934.714 18.264 937.57 15.456 937.57 11.016V7.704C937.57 3.168 934.57 0.599999 930.298 0.599999C926.098 0.599999 923.002 3.336 923.002 7.776V11.112C923.002 15.48 925.81 18.264 930.25 18.264ZM930.298 15.072C928.33 15.072 927.13 13.68 927.13 11.088V7.752C927.13 5.184 928.282 3.768 930.298 3.768C932.29 3.768 933.442 5.256 933.442 7.752V11.064C933.442 13.632 932.29 15.072 930.298 15.072ZM941.029 18H945.037L945.061 3.96H948.853V0.839999H937.261V3.96H941.029V18ZM1074.87 0.839999V18H1080.29C1085.29 18 1087.83 15.456 1087.83 10.896V7.824C1087.83 3.216 1085.29 0.839999 1080.29 0.839999H1074.87ZM1080.13 3.936C1082.69 3.936 1083.68 5.136 1083.68 7.896V10.896C1083.68 13.656 1082.67 14.904 1080.17 14.904H1078.88V3.936H1080.13ZM1097.18 18H1101.33L1096.98 0.839999H1091.58L1087.22 18H1090.91L1091.7 14.472H1096.38L1097.18 18ZM1094.03 4.176L1095.74 11.664H1092.35L1094.03 4.176ZM1101.86 18H1105.44V6.432L1110.72 18H1114.63V0.839999H1111.08V11.232L1106.4 0.839999H1101.86V18ZM1122.89 18.264C1126.64 18.264 1129.25 16.368 1129.47 12.264H1125.53C1125.39 14.256 1124.33 15.072 1122.85 15.072C1120.88 15.072 1119.89 13.704 1119.89 11.088V7.728C1119.89 5.112 1120.95 3.744 1122.77 3.744C1124.31 3.744 1125.08 4.56 1125.25 6.408H1129.33C1129.06 2.28 1126.45 0.599999 1122.77 0.599999C1118.72 0.599999 1115.72 3.312 1115.72 7.8V11.064C1115.72 15.552 1118.24 18.264 1122.89 18.264ZM1130.19 18H1140.44V14.88H1134.17V10.608H1138.9V7.704H1134.17V3.96H1140.1V0.839999H1130.19V18ZM1141.34 18H1145.32V10.896H1150.17V18H1154.15V0.839999H1150.17V7.704H1145.32V0.839999H1141.34V18ZM1164.68 18H1168.83L1164.48 0.839999H1159.08L1154.72 18H1158.41L1159.2 14.472H1163.88L1164.68 18ZM1161.53 4.176L1163.24 11.664H1159.85L1161.53 4.176ZM1169.36 18H1178.96V14.856H1173.37V0.839999H1169.36V18ZM1179.83 18H1189.43V14.856H1183.84V0.839999H1179.83V18ZM1316.92 18.264C1320.67 18.264 1323.28 16.368 1323.5 12.264H1319.56C1319.42 14.256 1318.36 15.072 1316.88 15.072C1314.91 15.072 1313.92 13.704 1313.92 11.088V7.728C1313.92 5.112 1314.98 3.744 1316.8 3.744C1318.34 3.744 1319.11 4.56 1319.28 6.408H1323.36C1323.09 2.28 1320.48 0.599999 1316.8 0.599999C1312.75 0.599999 1309.75 3.312 1309.75 7.8V11.064C1309.75 15.552 1312.27 18.264 1316.92 18.264ZM1324.22 18H1328.2V10.896H1333.05V18H1337.03V0.839999H1333.05V7.704H1328.2V0.839999H1324.22V18ZM1347.55 18H1351.71L1347.36 0.839999H1341.96L1337.59 18H1341.29L1342.08 14.472H1346.76L1347.55 18ZM1344.41 4.176L1346.11 11.664H1342.73L1344.41 4.176ZM1352.24 18H1355.77V6.552L1359.37 18H1360.61L1364.24 6.552V18H1368.2V0.839999H1363.09L1360.23 10.44L1357.35 0.839999H1352.24V18ZM1369.79 18H1373.77V11.592H1375.38C1379.12 11.592 1381.21 9.984 1381.21 6.648V5.928C1381.21 2.568 1379.29 0.839999 1375.26 0.839999H1369.79V18ZM1373.77 8.808V3.864H1375.12C1376.6 3.864 1377.35 4.416 1377.35 5.976V6.624C1377.35 8.112 1376.6 8.808 1375.12 8.808H1373.77ZM1381.97 18H1392.22V14.88H1385.96V10.608H1390.68V7.704H1385.96V3.96H1391.88V0.839999H1381.97V18ZM1395.98 18H1399.99L1400.01 3.96H1403.8V0.839999H1392.21V3.96H1395.98V18ZM1412.08 18H1416.23L1411.89 0.839999H1406.49L1402.12 18H1405.81L1406.61 14.472H1411.29L1412.08 18ZM1408.93 4.176L1410.64 11.664H1407.25L1408.93 4.176ZM1541.02 18.192C1544.33 18.192 1546.18 16.416 1546.18 12.864V0.839999H1542.17V12.768C1542.17 14.376 1541.4 14.952 1540.18 14.952C1539.41 14.952 1538.93 14.832 1538.47 14.664V17.712C1539.03 17.976 1539.72 18.192 1541.02 18.192ZM1556.22 0.839999V11.928C1556.22 14.184 1555.55 15.072 1553.87 15.072C1552.14 15.072 1551.54 14.136 1551.54 12V0.839999H1547.53V12.144C1547.53 16.224 1549.84 18.264 1553.84 18.264C1557.88 18.264 1560.25 16.272 1560.25 12.096V0.839999H1556.22ZM1562.78 18.192C1566.09 18.192 1567.94 16.416 1567.94 12.864V0.839999H1563.93V12.768C1563.93 14.376 1563.17 14.952 1561.94 14.952C1561.17 14.952 1560.69 14.832 1560.24 14.664V17.712C1560.79 17.976 1561.49 18.192 1562.78 18.192ZM1577.98 0.839999V11.928C1577.98 14.184 1577.31 15.072 1575.63 15.072C1573.9 15.072 1573.3 14.136 1573.3 12V0.839999H1569.3V12.144C1569.3 16.224 1571.6 18.264 1575.61 18.264C1579.64 18.264 1582.02 16.272 1582.02 12.096V0.839999H1577.98ZM1705.24 18.192C1708.56 18.192 1710.4 16.416 1710.4 12.864V0.839999H1706.4V12.768C1706.4 14.376 1705.63 14.952 1704.4 14.952C1703.64 14.952 1703.16 14.832 1702.7 14.664V17.712C1703.25 17.976 1703.95 18.192 1705.24 18.192ZM1720.45 0.839999V11.928C1720.45 14.184 1719.78 15.072 1718.1 15.072C1716.37 15.072 1715.77 14.136 1715.77 12V0.839999H1711.76V12.144C1711.76 16.224 1714.06 18.264 1718.07 18.264C1722.1 18.264 1724.48 16.272 1724.48 12.096V0.839999H1720.45ZM1727.01 18.192C1730.32 18.192 1732.17 16.416 1732.17 12.864V0.839999H1728.16V12.768C1728.16 14.376 1727.39 14.952 1726.17 14.952C1725.4 14.952 1724.92 14.832 1724.46 14.664V17.712C1725.02 17.976 1725.71 18.192 1727.01 18.192ZM1742.21 0.839999V11.928C1742.21 14.184 1741.54 15.072 1739.86 15.072C1738.13 15.072 1737.53 14.136 1737.53 12V0.839999H1733.52V12.144C1733.52 16.224 1735.83 18.264 1739.84 18.264C1743.87 18.264 1746.24 16.272 1746.24 12.096V0.839999H1742.21Z" fill="#FAC081"/>
<path d="M-53.1346 18H-49.5586V6.432L-44.2786 18H-40.3666V0.839999H-43.9186V11.232L-48.5986 0.839999H-53.1346V18ZM-32.0046 18.264C-27.5406 18.264 -24.6846 15.456 -24.6846 11.016V7.704C-24.6846 3.168 -27.6846 0.599999 -31.9566 0.599999C-36.1566 0.599999 -39.2526 3.336 -39.2526 7.776V11.112C-39.2526 15.48 -36.4446 18.264 -32.0046 18.264ZM-31.9566 15.072C-33.9246 15.072 -35.1246 13.68 -35.1246 11.088V7.752C-35.1246 5.184 -33.9726 3.768 -31.9566 3.768C-29.9646 3.768 -28.8126 5.256 -28.8126 7.752V11.064C-28.8126 13.632 -29.9646 15.072 -31.9566 15.072ZM-21.2254 18H-17.2174L-17.1934 3.96H-13.4014V0.839999H-24.9934V3.96H-21.2254V18ZM-7.51169 18H-3.47969L-1.10369 7.296L1.24831 18H5.06431L8.49631 0.839999H4.80031L2.83231 12.168L0.408307 0.839999H-2.68769L-4.96769 12.096L-6.88769 0.839999H-10.9197L-7.51169 18ZM15.3204 18.264C19.7844 18.264 22.6404 15.456 22.6404 11.016V7.704C22.6404 3.168 19.6404 0.599999 15.3684 0.599999C11.1684 0.599999 8.07237 3.336 8.07237 7.776V11.112C8.07237 15.48 10.8804 18.264 15.3204 18.264ZM15.3684 15.072C13.4004 15.072 12.2004 13.68 12.2004 11.088V7.752C12.2004 5.184 13.3524 3.768 15.3684 3.768C17.3604 3.768 18.5124 5.256 18.5124 7.752V11.064C18.5124 13.632 17.3604 15.072 15.3684 15.072ZM23.7123 18H27.6963V11.256H28.8963L31.9203 18H36.1203L32.6643 10.536C34.2483 9.936 35.3763 8.76 35.3763 6.384V5.76C35.3763 2.448 33.2883 0.839999 29.3283 0.839999H23.7123V18ZM27.6963 8.592V3.888H29.1843C30.6963 3.888 31.4883 4.44 31.4883 5.88V6.456C31.4883 7.968 30.7203 8.592 29.1843 8.592H27.6963ZM36.692 18H46.292V14.856H40.7V0.839999H36.692V18ZM47.1639 0.839999V18H52.5879C57.5799 18 60.1239 15.456 60.1239 10.896V7.824C60.1239 3.216 57.5799 0.839999 52.5879 0.839999H47.1639ZM52.4199 3.936C54.9879 3.936 55.9719 5.136 55.9719 7.896V10.896C55.9719 13.656 54.9639 14.904 52.4679 14.904H51.1719V3.936H52.4199ZM173.909 18H177.485V6.432L182.765 18H186.677V0.839999H183.125V11.232L178.445 0.839999H173.909V18ZM195.039 18.264C199.503 18.264 202.359 15.456 202.359 11.016V7.704C202.359 3.168 199.359 0.599999 195.087 0.599999C190.887 0.599999 187.791 3.336 187.791 7.776V11.112C187.791 15.48 190.599 18.264 195.039 18.264ZM195.087 15.072C193.119 15.072 191.919 13.68 191.919 11.088V7.752C191.919 5.184 193.071 3.768 195.087 3.768C197.079 3.768 198.231 5.256 198.231 7.752V11.064C198.231 13.632 197.079 15.072 195.087 15.072ZM205.818 18H209.826L209.85 3.96H213.642V0.839999H202.05V3.96H205.818V18ZM224.14 11.52H226.828V12.192C226.78 14.016 225.964 15.168 223.972 15.168C221.644 15.168 220.756 13.584 220.756 11.16V7.752C220.756 5.184 221.884 3.744 223.876 3.744C225.412 3.744 226.3 4.464 226.468 6.264H230.428C230.188 2.136 227.356 0.599999 223.852 0.599999C219.652 0.599999 216.628 3.288 216.628 7.776V11.088C216.628 15.504 219.196 18.264 223.876 18.264C228.364 18.264 230.716 15.84 230.716 11.736V8.808H224.14V11.52ZM231.706 18H241.306V14.856H235.714V0.839999H231.706V18ZM248.453 18.264C252.917 18.264 255.773 15.456 255.773 11.016V7.704C255.773 3.168 252.773 0.599999 248.501 0.599999C244.301 0.599999 241.205 3.336 241.205 7.776V11.112C241.205 15.48 244.013 18.264 248.453 18.264ZM248.501 15.072C246.533 15.072 245.333 13.68 245.333 11.088V7.752C245.333 5.184 246.485 3.768 248.501 3.768C250.493 3.768 251.645 5.256 251.645 7.752V11.064C251.645 13.632 250.493 15.072 248.501 15.072ZM256.845 18H263.061C266.757 18 268.725 16.488 268.725 13.344V12.984C268.725 10.632 267.453 9.456 265.413 9.048C267.165 8.568 268.197 7.416 268.197 5.544V5.088C268.197 2.328 266.349 0.839999 262.893 0.839999H256.845V18ZM260.757 7.824V3.6H262.269C263.709 3.6 264.429 4.032 264.429 5.424V5.832C264.429 7.272 263.805 7.824 262.293 7.824H260.757ZM260.757 15.24V10.392H262.365C264.069 10.392 264.765 10.992 264.765 12.576V13.008C264.765 14.52 264.021 15.24 262.485 15.24H260.757ZM278.424 18H282.576L278.232 0.839999H272.832L268.464 18H272.16L272.952 14.472H277.632L278.424 18ZM275.28 4.176L276.984 11.664H273.6L275.28 4.176ZM283.109 18H292.709V14.856H287.117V0.839999H283.109V18ZM388.226 18H391.802V6.432L397.082 18H400.994V0.839999H397.442V11.232L392.762 0.839999H388.226V18ZM409.356 18.264C413.82 18.264 416.676 15.456 416.676 11.016V7.704C416.676 3.168 413.676 0.599999 409.404 0.599999C405.204 0.599999 402.108 3.336 402.108 7.776V11.112C402.108 15.48 404.916 18.264 409.356 18.264ZM409.404 15.072C407.436 15.072 406.236 13.68 406.236 11.088V7.752C406.236 5.184 407.388 3.768 409.404 3.768C411.396 3.768 412.548 5.256 412.548 7.752V11.064C412.548 13.632 411.396 15.072 409.404 15.072ZM420.136 18H424.144L424.168 3.96H427.96V0.839999H416.368V3.96H420.136V18ZM433.849 18H437.881L440.257 7.296L442.609 18H446.425L449.857 0.839999H446.161L444.193 12.168L441.769 0.839999H438.673L436.393 12.096L434.473 0.839999H430.441L433.849 18ZM456.681 18.264C461.145 18.264 464.001 15.456 464.001 11.016V7.704C464.001 3.168 461.001 0.599999 456.729 0.599999C452.529 0.599999 449.433 3.336 449.433 7.776V11.112C449.433 15.48 452.241 18.264 456.681 18.264ZM456.729 15.072C454.761 15.072 453.561 13.68 453.561 11.088V7.752C453.561 5.184 454.713 3.768 456.729 3.768C458.721 3.768 459.873 5.256 459.873 7.752V11.064C459.873 13.632 458.721 15.072 456.729 15.072ZM465.073 18H469.057V11.256H470.257L473.281 18H477.481L474.025 10.536C475.609 9.936 476.737 8.76 476.737 6.384V5.76C476.737 2.448 474.649 0.839999 470.689 0.839999H465.073V18ZM469.057 8.592V3.888H470.545C472.057 3.888 472.849 4.44 472.849 5.88V6.456C472.849 7.968 472.081 8.592 470.545 8.592H469.057ZM478.053 18H487.653V14.856H482.061V0.839999H478.053V18ZM488.525 0.839999V18H493.949C498.941 18 501.485 15.456 501.485 10.896V7.824C501.485 3.216 498.941 0.839999 493.949 0.839999H488.525ZM493.781 3.936C496.349 3.936 497.333 5.136 497.333 7.896V10.896C497.333 13.656 496.325 14.904 493.829 14.904H492.533V3.936H493.781ZM603.439 18H607.015V6.432L612.295 18H616.207V0.839999H612.655V11.232L607.975 0.839999H603.439V18ZM624.569 18.264C629.033 18.264 631.889 15.456 631.889 11.016V7.704C631.889 3.168 628.889 0.599999 624.617 0.599999C620.417 0.599999 617.321 3.336 617.321 7.776V11.112C617.321 15.48 620.129 18.264 624.569 18.264ZM624.617 15.072C622.649 15.072 621.449 13.68 621.449 11.088V7.752C621.449 5.184 622.601 3.768 624.617 3.768C626.609 3.768 627.761 5.256 627.761 7.752V11.064C627.761 13.632 626.609 15.072 624.617 15.072ZM635.348 18H639.356L639.38 3.96H643.172V0.839999H631.58V3.96H635.348V18ZM653.67 11.52H656.358V12.192C656.31 14.016 655.494 15.168 653.502 15.168C651.174 15.168 650.286 13.584 650.286 11.16V7.752C650.286 5.184 651.414 3.744 653.406 3.744C654.942 3.744 655.83 4.464 655.998 6.264H659.958C659.718 2.136 656.886 0.599999 653.382 0.599999C649.182 0.599999 646.158 3.288 646.158 7.776V11.088C646.158 15.504 648.726 18.264 653.406 18.264C657.894 18.264 660.246 15.84 660.246 11.736V8.808H653.67V11.52ZM661.236 18H670.836V14.856H665.244V0.839999H661.236V18ZM677.983 18.264C682.447 18.264 685.303 15.456 685.303 11.016V7.704C685.303 3.168 682.303 0.599999 678.031 0.599999C673.831 0.599999 670.735 3.336 670.735 7.776V11.112C670.735 15.48 673.543 18.264 677.983 18.264ZM678.031 15.072C676.063 15.072 674.863 13.68 674.863 11.088V7.752C674.863 5.184 676.015 3.768 678.031 3.768C680.023 3.768 681.175 5.256 681.175 7.752V11.064C681.175 13.632 680.023 15.072 678.031 15.072ZM686.375 18H692.591C696.287 18 698.255 16.488 698.255 13.344V12.984C698.255 10.632 696.983 9.456 694.943 9.048C696.695 8.568 697.727 7.416 697.727 5.544V5.088C697.727 2.328 695.879 0.839999 692.423 0.839999H686.375V18ZM690.287 7.824V3.6H691.799C693.239 3.6 693.959 4.032 693.959 5.424V5.832C693.959 7.272 693.335 7.824 691.823 7.824H690.287ZM690.287 15.24V10.392H691.895C693.599 10.392 694.295 10.992 694.295 12.576V13.008C694.295 14.52 693.551 15.24 692.015 15.24H690.287ZM707.954 18H712.106L707.762 0.839999H702.362L697.994 18H701.69L702.482 14.472H707.162L707.954 18ZM704.81 4.176L706.514 11.664H703.13L704.81 4.176ZM712.639 18H722.239V14.856H716.647V0.839999H712.639V18ZM773.028 18H776.604V6.432L781.884 18H785.796V0.839999H782.244V11.232L777.564 0.839999H773.028V18ZM794.158 18.264C798.622 18.264 801.478 15.456 801.478 11.016V7.704C801.478 3.168 798.478 0.599999 794.206 0.599999C790.006 0.599999 786.91 3.336 786.91 7.776V11.112C786.91 15.48 789.718 18.264 794.158 18.264ZM794.206 15.072C792.238 15.072 791.038 13.68 791.038 11.088V7.752C791.038 5.184 792.19 3.768 794.206 3.768C796.198 3.768 797.35 5.256 797.35 7.752V11.064C797.35 13.632 796.198 15.072 794.206 15.072ZM804.937 18H808.945L808.969 3.96H812.761V0.839999H801.169V3.96H804.937V18ZM818.651 18H822.683L825.059 7.296L827.411 18H831.227L834.659 0.839999H830.963L828.995 12.168L826.571 0.839999H823.475L821.195 12.096L819.275 0.839999H815.243L818.651 18ZM841.483 18.264C845.947 18.264 848.803 15.456 848.803 11.016V7.704C848.803 3.168 845.803 0.599999 841.531 0.599999C837.331 0.599999 834.235 3.336 834.235 7.776V11.112C834.235 15.48 837.043 18.264 841.483 18.264ZM841.531 15.072C839.563 15.072 838.363 13.68 838.363 11.088V7.752C838.363 5.184 839.515 3.768 841.531 3.768C843.523 3.768 844.675 5.256 844.675 7.752V11.064C844.675 13.632 843.523 15.072 841.531 15.072ZM849.875 18H853.859V11.256H855.059L858.083 18H862.283L858.827 10.536C860.411 9.936 861.539 8.76 861.539 6.384V5.76C861.539 2.448 859.451 0.839999 855.491 0.839999H849.875V18ZM853.859 8.592V3.888H855.347C856.859 3.888 857.651 4.44 857.651 5.88V6.456C857.651 7.968 856.883 8.592 855.347 8.592H853.859ZM862.855 18H872.455V14.856H866.863V0.839999H862.855V18ZM873.326 0.839999V18H878.75C883.742 18 886.286 15.456 886.286 10.896V7.824C886.286 3.216 883.742 0.839999 878.75 0.839999H873.326ZM878.582 3.936C881.15 3.936 882.134 5.136 882.134 7.896V10.896C882.134 13.656 881.126 14.904 878.63 14.904H877.334V3.936H878.582ZM952.367 18H955.943V6.432L961.223 18H965.135V0.839999H961.583V11.232L956.903 0.839999H952.367V18ZM973.497 18.264C977.961 18.264 980.817 15.456 980.817 11.016V7.704C980.817 3.168 977.817 0.599999 973.545 0.599999C969.345 0.599999 966.249 3.336 966.249 7.776V11.112C966.249 15.48 969.057 18.264 973.497 18.264ZM973.545 15.072C971.577 15.072 970.377 13.68 970.377 11.088V7.752C970.377 5.184 971.529 3.768 973.545 3.768C975.537 3.768 976.689 5.256 976.689 7.752V11.064C976.689 13.632 975.537 15.072 973.545 15.072ZM984.276 18H988.284L988.308 3.96H992.1V0.839999H980.508V3.96H984.276V18ZM1002.6 11.52H1005.29V12.192C1005.24 14.016 1004.42 15.168 1002.43 15.168C1000.1 15.168 999.214 13.584 999.214 11.16V7.752C999.214 5.184 1000.34 3.744 1002.33 3.744C1003.87 3.744 1004.76 4.464 1004.93 6.264H1008.89C1008.65 2.136 1005.81 0.599999 1002.31 0.599999C998.11 0.599999 995.086 3.288 995.086 7.776V11.088C995.086 15.504 997.654 18.264 1002.33 18.264C1006.82 18.264 1009.17 15.84 1009.17 11.736V8.808H1002.6V11.52ZM1010.16 18H1019.76V14.856H1014.17V0.839999H1010.16V18ZM1026.91 18.264C1031.38 18.264 1034.23 15.456 1034.23 11.016V7.704C1034.23 3.168 1031.23 0.599999 1026.96 0.599999C1022.76 0.599999 1019.66 3.336 1019.66 7.776V11.112C1019.66 15.48 1022.47 18.264 1026.91 18.264ZM1026.96 15.072C1024.99 15.072 1023.79 13.68 1023.79 11.088V7.752C1023.79 5.184 1024.94 3.768 1026.96 3.768C1028.95 3.768 1030.1 5.256 1030.1 7.752V11.064C1030.1 13.632 1028.95 15.072 1026.96 15.072ZM1035.3 18H1041.52C1045.21 18 1047.18 16.488 1047.18 13.344V12.984C1047.18 10.632 1045.91 9.456 1043.87 9.048C1045.62 8.568 1046.65 7.416 1046.65 5.544V5.088C1046.65 2.328 1044.81 0.839999 1041.35 0.839999H1035.3V18ZM1039.21 7.824V3.6H1040.73C1042.17 3.6 1042.89 4.032 1042.89 5.424V5.832C1042.89 7.272 1042.26 7.824 1040.75 7.824H1039.21ZM1039.21 15.24V10.392H1040.82C1042.53 10.392 1043.22 10.992 1043.22 12.576V13.008C1043.22 14.52 1042.48 15.24 1040.94 15.24H1039.21ZM1056.88 18H1061.03L1056.69 0.839999H1051.29L1046.92 18H1050.62L1051.41 14.472H1056.09L1056.88 18ZM1053.74 4.176L1055.44 11.664H1052.06L1053.74 4.176ZM1061.57 18H1071.17V14.856H1065.58V0.839999H1061.57V18ZM1193.14 18H1196.71V6.432L1201.99 18H1205.9V0.839999H1202.35V11.232L1197.67 0.839999H1193.14V18ZM1214.27 18.264C1218.73 18.264 1221.59 15.456 1221.59 11.016V7.704C1221.59 3.168 1218.59 0.599999 1214.31 0.599999C1210.11 0.599999 1207.02 3.336 1207.02 7.776V11.112C1207.02 15.48 1209.83 18.264 1214.27 18.264ZM1214.31 15.072C1212.35 15.072 1211.15 13.68 1211.15 11.088V7.752C1211.15 5.184 1212.3 3.768 1214.31 3.768C1216.31 3.768 1217.46 5.256 1217.46 7.752V11.064C1217.46 13.632 1216.31 15.072 1214.31 15.072ZM1225.04 18H1229.05L1229.08 3.96H1232.87V0.839999H1221.28V3.96H1225.04V18ZM1238.76 18H1242.79L1245.17 7.296L1247.52 18H1251.33L1254.77 0.839999H1251.07L1249.1 12.168L1246.68 0.839999H1243.58L1241.3 12.096L1239.38 0.839999H1235.35L1238.76 18ZM1261.59 18.264C1266.05 18.264 1268.91 15.456 1268.91 11.016V7.704C1268.91 3.168 1265.91 0.599999 1261.64 0.599999C1257.44 0.599999 1254.34 3.336 1254.34 7.776V11.112C1254.34 15.48 1257.15 18.264 1261.59 18.264ZM1261.64 15.072C1259.67 15.072 1258.47 13.68 1258.47 11.088V7.752C1258.47 5.184 1259.62 3.768 1261.64 3.768C1263.63 3.768 1264.78 5.256 1264.78 7.752V11.064C1264.78 13.632 1263.63 15.072 1261.64 15.072ZM1269.98 18H1273.97V11.256H1275.17L1278.19 18H1282.39L1278.93 10.536C1280.52 9.936 1281.65 8.76 1281.65 6.384V5.76C1281.65 2.448 1279.56 0.839999 1275.6 0.839999H1269.98V18ZM1273.97 8.592V3.888H1275.45C1276.97 3.888 1277.76 4.44 1277.76 5.88V6.456C1277.76 7.968 1276.99 8.592 1275.45 8.592H1273.97ZM1282.96 18H1292.56V14.856H1286.97V0.839999H1282.96V18ZM1293.43 0.839999V18H1298.86C1303.85 18 1306.39 15.456 1306.39 10.896V7.824C1306.39 3.216 1303.85 0.839999 1298.86 0.839999H1293.43ZM1298.69 3.936C1301.26 3.936 1302.24 5.136 1302.24 7.896V10.896C1302.24 13.656 1301.23 14.904 1298.74 14.904H1297.44V3.936H1298.69ZM1419.59 18H1423.17V6.432L1428.45 18H1432.36V0.839999H1428.81V11.232L1424.13 0.839999H1419.59V18ZM1440.72 18.264C1445.19 18.264 1448.04 15.456 1448.04 11.016V7.704C1448.04 3.168 1445.04 0.599999 1440.77 0.599999C1436.57 0.599999 1433.48 3.336 1433.48 7.776V11.112C1433.48 15.48 1436.28 18.264 1440.72 18.264ZM1440.77 15.072C1438.8 15.072 1437.6 13.68 1437.6 11.088V7.752C1437.6 5.184 1438.76 3.768 1440.77 3.768C1442.76 3.768 1443.92 5.256 1443.92 7.752V11.064C1443.92 13.632 1442.76 15.072 1440.77 15.072ZM1451.5 18H1455.51L1455.53 3.96H1459.33V0.839999H1447.73V3.96H1451.5V18ZM1469.82 11.52H1472.51V12.192C1472.46 14.016 1471.65 15.168 1469.66 15.168C1467.33 15.168 1466.44 13.584 1466.44 11.16V7.752C1466.44 5.184 1467.57 3.744 1469.56 3.744C1471.1 3.744 1471.98 4.464 1472.15 6.264H1476.11C1475.87 2.136 1473.04 0.599999 1469.54 0.599999C1465.34 0.599999 1462.31 3.288 1462.31 7.776V11.088C1462.31 15.504 1464.88 18.264 1469.56 18.264C1474.05 18.264 1476.4 15.84 1476.4 11.736V8.808H1469.82V11.52ZM1477.39 18H1486.99V14.856H1481.4V0.839999H1477.39V18ZM1494.14 18.264C1498.6 18.264 1501.46 15.456 1501.46 11.016V7.704C1501.46 3.168 1498.46 0.599999 1494.19 0.599999C1489.99 0.599999 1486.89 3.336 1486.89 7.776V11.112C1486.89 15.48 1489.7 18.264 1494.14 18.264ZM1494.19 15.072C1492.22 15.072 1491.02 13.68 1491.02 11.088V7.752C1491.02 5.184 1492.17 3.768 1494.19 3.768C1496.18 3.768 1497.33 5.256 1497.33 7.752V11.064C1497.33 13.632 1496.18 15.072 1494.19 15.072ZM1502.53 18H1508.75C1512.44 18 1514.41 16.488 1514.41 13.344V12.984C1514.41 10.632 1513.14 9.456 1511.1 9.048C1512.85 8.568 1513.88 7.416 1513.88 5.544V5.088C1513.88 2.328 1512.03 0.839999 1508.58 0.839999H1502.53V18ZM1506.44 7.824V3.6H1507.95C1509.39 3.6 1510.11 4.032 1510.11 5.424V5.832C1510.11 7.272 1509.49 7.824 1507.98 7.824H1506.44ZM1506.44 15.24V10.392H1508.05C1509.75 10.392 1510.45 10.992 1510.45 12.576V13.008C1510.45 14.52 1509.71 15.24 1508.17 15.24H1506.44ZM1524.11 18H1528.26L1523.92 0.839999H1518.52L1514.15 18H1517.84L1518.64 14.472H1523.32L1524.11 18ZM1520.96 4.176L1522.67 11.664H1519.28L1520.96 4.176ZM1528.79 18H1538.39V14.856H1532.8V0.839999H1528.79V18ZM1586.35 18H1589.93V6.432L1595.21 18H1599.12V0.839999H1595.57V11.232L1590.89 0.839999H1586.35V18ZM1607.48 18.264C1611.95 18.264 1614.8 15.456 1614.8 11.016V7.704C1614.8 3.168 1611.8 0.599999 1607.53 0.599999C1603.33 0.599999 1600.23 3.336 1600.23 7.776V11.112C1600.23 15.48 1603.04 18.264 1607.48 18.264ZM1607.53 15.072C1605.56 15.072 1604.36 13.68 1604.36 11.088V7.752C1604.36 5.184 1605.51 3.768 1607.53 3.768C1609.52 3.768 1610.67 5.256 1610.67 7.752V11.064C1610.67 13.632 1609.52 15.072 1607.53 15.072ZM1618.26 18H1622.27L1622.29 3.96H1626.08V0.839999H1614.49V3.96H1618.26V18ZM1631.97 18H1636.01L1638.38 7.296L1640.73 18H1644.55L1647.98 0.839999H1644.29L1642.32 12.168L1639.89 0.839999H1636.8L1634.52 12.096L1632.6 0.839999H1628.57L1631.97 18ZM1654.81 18.264C1659.27 18.264 1662.13 15.456 1662.13 11.016V7.704C1662.13 3.168 1659.13 0.599999 1654.85 0.599999C1650.65 0.599999 1647.56 3.336 1647.56 7.776V11.112C1647.56 15.48 1650.37 18.264 1654.81 18.264ZM1654.85 15.072C1652.89 15.072 1651.69 13.68 1651.69 11.088V7.752C1651.69 5.184 1652.84 3.768 1654.85 3.768C1656.85 3.768 1658 5.256 1658 7.752V11.064C1658 13.632 1656.85 15.072 1654.85 15.072ZM1663.2 18H1667.18V11.256H1668.38L1671.41 18H1675.61L1672.15 10.536C1673.73 9.936 1674.86 8.76 1674.86 6.384V5.76C1674.86 2.448 1672.77 0.839999 1668.81 0.839999H1663.2V18ZM1667.18 8.592V3.888H1668.67C1670.18 3.888 1670.97 4.44 1670.97 5.88V6.456C1670.97 7.968 1670.21 8.592 1668.67 8.592H1667.18ZM1676.18 18H1685.78V14.856H1680.19V0.839999H1676.18V18ZM1686.65 0.839999V18H1692.07C1697.07 18 1699.61 15.456 1699.61 10.896V7.824C1699.61 3.216 1697.07 0.839999 1692.07 0.839999H1686.65ZM1691.91 3.936C1694.47 3.936 1695.46 5.136 1695.46 7.896V10.896C1695.46 13.656 1694.45 14.904 1691.95 14.904H1690.66V3.936H1691.91ZM1750.58 18H1754.15V6.432L1759.43 18H1763.35V0.839999H1759.79V11.232L1755.11 0.839999H1750.58V18ZM1771.71 18.264C1776.17 18.264 1779.03 15.456 1779.03 11.016V7.704C1779.03 3.168 1776.03 0.599999 1771.76 0.599999C1767.56 0.599999 1764.46 3.336 1764.46 7.776V11.112C1764.46 15.48 1767.27 18.264 1771.71 18.264ZM1771.76 15.072C1769.79 15.072 1768.59 13.68 1768.59 11.088V7.752C1768.59 5.184 1769.74 3.768 1771.76 3.768C1773.75 3.768 1774.9 5.256 1774.9 7.752V11.064C1774.9 13.632 1773.75 15.072 1771.76 15.072ZM1782.49 18H1786.5L1786.52 3.96H1790.31V0.839999H1778.72V3.96H1782.49V18ZM1796.2 18H1800.23L1802.61 7.296L1804.96 18H1808.78L1812.21 0.839999H1808.51L1806.54 12.168L1804.12 0.839999H1801.02L1798.74 12.096L1796.82 0.839999H1792.79L1796.2 18ZM1819.03 18.264C1823.5 18.264 1826.35 15.456 1826.35 11.016V7.704C1826.35 3.168 1823.35 0.599999 1819.08 0.599999C1814.88 0.599999 1811.78 3.336 1811.78 7.776V11.112C1811.78 15.48 1814.59 18.264 1819.03 18.264ZM1819.08 15.072C1817.11 15.072 1815.91 13.68 1815.91 11.088V7.752C1815.91 5.184 1817.06 3.768 1819.08 3.768C1821.07 3.768 1822.22 5.256 1822.22 7.752V11.064C1822.22 13.632 1821.07 15.072 1819.08 15.072ZM1827.42 18H1831.41V11.256H1832.61L1835.63 18H1839.83L1836.38 10.536C1837.96 9.936 1839.09 8.76 1839.09 6.384V5.76C1839.09 2.448 1837 0.839999 1833.04 0.839999H1827.42V18ZM1831.41 8.592V3.888H1832.9C1834.41 3.888 1835.2 4.44 1835.2 5.88V6.456C1835.2 7.968 1834.43 8.592 1832.9 8.592H1831.41ZM1840.4 18H1850V14.856H1844.41V0.839999H1840.4V18ZM1850.88 0.839999V18H1856.3C1861.29 18 1863.84 15.456 1863.84 10.896V7.824C1863.84 3.216 1861.29 0.839999 1856.3 0.839999H1850.88ZM1856.13 3.936C1858.7 3.936 1859.68 5.136 1859.68 7.896V10.896C1859.68 13.656 1858.68 14.904 1856.18 14.904H1854.88V3.936H1856.13Z" fill="#FC8F68"/>
</svg>
