<?xml version="1.0" standalone="no"?>
<!DOCTYPE svg PUBLIC "-//W3C//DTD SVG 20010904//EN"
 "http://www.w3.org/TR/2001/REC-SVG-20010904/DTD/svg10.dtd">
<svg version="1.0" xmlns="http://www.w3.org/2000/svg"
 width="700.000000pt" height="700.000000pt" viewBox="0 0 700.000000 700.000000"
 preserveAspectRatio="xMidYMid meet">
<metadata>
Created by potrace 1.14, written by Peter Selinger 2001-2017
</metadata>
<g transform="translate(0.000000,700.000000) scale(0.100000,-0.100000)"
fill="#000000" stroke="none">
<path d="M435 6990 c-189 -38 -343 -174 -407 -359 l-23 -66 0 -3065 0 -3065
23 -68 c57 -163 183 -286 352 -343 53 -18 152 -19 3120 -19 l3065 0 68 23
c161 56 283 179 339 341 l23 66 0 3065 0 3065 -23 68 c-55 159 -172 276 -338
339 l-59 23 -3050 1 c-1677 1 -3068 -2 -3090 -6z m4138 -1379 c257 -68 410
-243 445 -508 l9 -63 -212 0 -211 0 -12 58 c-27 132 -117 204 -255 206 -40 0
-93 -5 -118 -12 -64 -19 -137 -78 -170 -137 -49 -87 -60 -151 -66 -385 -6
-246 6 -410 37 -492 24 -65 87 -141 139 -167 56 -29 147 -44 215 -36 172 19
254 113 264 302 l5 93 -147 0 -146 0 0 145 0 145 356 0 357 0 -6 -232 c-4
-193 -8 -246 -26 -311 -62 -234 -216 -382 -466 -448 -117 -31 -354 -31 -480 0
-275 67 -448 239 -517 516 -20 83 -22 113 -23 390 0 215 4 320 14 370 61 310
272 519 586 581 101 20 327 12 428 -15z m-1663 -161 l0 -170 -198 0 -199 0 -6
-167 c-4 -91 -7 -431 -7 -755 l0 -588 -215 0 -215 0 0 755 0 755 -200 0 -200
0 0 170 0 170 620 0 620 0 0 -170z m-700 -3450 l0 -920 -215 0 -215 0 0 920 0
920 215 0 215 0 0 -920z m1514 343 c53 -318 101 -589 105 -603 7 -23 8 -23 14
-5 3 11 58 282 123 603 l117 582 163 0 c146 0 163 -2 168 -17 3 -10 60 -272
126 -583 66 -311 124 -576 129 -590 l8 -25 6 30 c4 17 50 278 102 580 52 303
98 562 101 578 l6 27 194 0 c107 0 194 -3 194 -7 -1 -5 -83 -417 -183 -918
l-183 -910 -204 0 -204 0 -125 572 c-69 314 -128 569 -131 567 -3 -3 -62 -261
-131 -572 l-126 -567 -214 -3 -215 -2 -179 902 c-98 497 -181 911 -183 921 -4
16 11 17 210 17 l214 0 98 -577z"/>
</g>
</svg>
